<?xml version="1.0" encoding="UTF-8"?>
<svg id="Capa_2" data-name="Capa 2" xmlns="http://www.w3.org/2000/svg" viewBox="0 0 206.29 203.86">
  <defs>
    <style>
      .cls-1 {
        fill: #bea78e;
        stroke: #4b443c;
      }

      .cls-1, .cls-2, .cls-3, .cls-4, .cls-5, .cls-6, .cls-7, .cls-8, .cls-9, .cls-10, .cls-11, .cls-12, .cls-13 {
        stroke-miterlimit: 10;
      }

      .cls-2 {
        fill: #d1ab8e;
      }

      .cls-2, .cls-3, .cls-6, .cls-7, .cls-9, .cls-10, .cls-11, .cls-12, .cls-13 {
        stroke: #000;
      }

      .cls-2, .cls-6, .cls-7, .cls-9, .cls-10 {
        stroke-width: .75px;
      }

      .cls-3 {
        fill: #fff;
      }

      .cls-4 {
        fill: #d6b9a2;
      }

      .cls-4, .cls-8 {
        stroke: #977a64;
        stroke-width: 3px;
      }

      .cls-5 {
        fill: none;
        stroke: #050505;
        stroke-width: .5px;
      }

      .cls-6 {
        fill: #616363;
      }

      .cls-7 {
        fill: #d56358;
      }

      .cls-14, .cls-15, .cls-16, .cls-17 {
        stroke-width: 0px;
      }

      .cls-14, .cls-13 {
        fill: #ead790;
      }

      .cls-15 {
        fill: #575450;
      }

      .cls-8 {
        fill: #d4b8a0;
      }

      .cls-16 {
        fill: #5f5f5d;
      }

      .cls-9 {
        fill: #babab5;
      }

      .cls-10 {
        fill: #6d5645;
      }

      .cls-11 {
        fill: #4c4b4b;
      }

      .cls-12 {
        fill: #772220;
      }

      .cls-17 {
        fill: #f4f3f4;
      }
    </style>
  </defs>
  <g id="Capa_1-2" data-name="Capa 1">
    <g>
      <path class="cls-2" d="M17.8,100.8s.56,24.13,7.41,31.47c0,0-14.54,5.47-10.62,25.33,0,0,4.61,16.4,18.73,15.6,0,0,4.75,12.53,27.68,23.33,0,0,25.58,10,51.73,5.6,0,0,18.87.27,37.33-11.2,0,0,12.58-7.2,17.75-18,0,0,20.69,4.99,23.21-20.91,0,0,.84-14.96-13.14-21.09,0,0,4.47-4.93,5.73-20.67,0,0,1.68-9.33-1.12-14.13l-34.72-33.72-53.68-1.54-44.74,6.72-26.84,13.2-4.71,20Z"/>
      <path class="cls-8" d="M40.13,93.44s36.35-8.27,46.13-6.93c0,0,13.7-1.33,12.02,14.13,0,0,2.52,26.93.14,28.27,0,0,.98,19.2-27.26,18.67,0,0-31.04,2.67-35.79-16.53,0,0-6.71-24.27,4.75-37.6Z"/>
      <path class="cls-4" d="M166.16,94.26s-36.35-8.27-46.13-6.93c0,0-13.7-1.33-12.02,14.13,0,0-2.52,26.93-.14,28.27,0,0-.98,19.2,27.26,18.67,0,0,31.04,2.67,35.79-16.53,0,0,6.71-24.27-4.75-37.6Z"/>
      <polygon class="cls-6" points="18.55 114.34 32.89 113.09 33.37 125.23 20.17 121.29 18.55 114.34"/>
      <polygon class="cls-6" points="182.7 113.28 172.81 111.79 172.71 123.91 181.71 120.2 182.7 113.28"/>
      <path class="cls-5" d="M99.28,146.89l.42,1.42s.47.84.71.03v-.19l1.64-.02s1.38,1.28,1.73,1.08l1.35.02,1.31-1.29,1.07.11s-.12,1,.47.8c0,0,.68-.58.65-1.2v-.92s-1.03-.66-1.45-.58c-.03,0-.06.02-.08.03-.35.22-3.63.03-3.63.03l-4.02.27-.23.15.09.24Z"/>
      <path class="cls-1" d="M50.58,189.41s-15.94-10.32-9.23-29.92c0,0,6.29-16.13,22.79-12l11.74,2.8,13.14,2.13,16.22,1.2,14.96-.8,18.45-3.07,9.37-1.6s17.06-2.27,17.2,16.27v4.4l-.98,5.2-1.68,5.07-5.03,7.07-3.91,4-2.52,1.6-9.51,4.8-8.53,2.53-11.6,2.93-9.23.67-10.62.67-11.18-.93-16.22-2.67-8.95-2.27-8.67-3.47-6.01-4.61Z"/>
      <path class="cls-11" d="M99.51,122.11v-2.47s5.45-1.4,7.27.6v2.13s-3.22-2.33-7.27-.27Z"/>
      <path class="cls-10" d="M26.55,146.28s.84-5.6-3.73-2.13c0,0-3.36,9.78,1.21,17.16,0,0-1.86-4.44,3.36-3.73,0,0,1.4,1.87,2.89.71,0,0-.56-1.87-1.96-1.96,0,0,1.68-1.51,1.03-5.78"/>
      <path class="cls-10" d="M176.29,144.49s-.84-5.6,3.73-2.13c0,0,3.36,9.78-1.21,17.16,0,0,1.86-4.44-3.36-3.73,0,0-1.4,1.87-2.89.71,0,0,.56-1.87,1.96-1.96,0,0-1.68-1.51-1.03-5.78"/>
      <path class="cls-13" d="M43.86,80.75s.14,17.31-22.09,19.08c0,0-16.5.68-21.25-19.08,0,0-.98-10.77,9.23-18.95,0,0,7.13-5.59,16.64-3.27,0,0-6.85-13.49,2.52-23.45,0,0,8.95-11.45,23.35-6.95,0,0,.7-17.45,17.34-25.63,0,0,11.04-6,25.16,2.73,0,0,8.39,5.45,12.86,15.54,0,0,9.09-20.17,24.05-19.49,0,0,11.74-3.27,22.51,9.27,0,0,6.29,5.73,7.41,17.86,0,0,11.32-4.91,21.25,3.68,0,0,10.21,7.63,6.15,21.4,0,0,22.65,4.91,15.38,29.17,0,0-2.1,9-14.96,12.81,0,0-13.56,3.82-21.95-7.22,0,0-4.89-6-4.33-11.86l-35.27-11.06h-19.31l-34.93,4.06-27.72,4.03-2.02,7.33Z"/>
      <path class="cls-13" d="M40.28,69.91s-10.19-3.95-13.82-11.62"/>
      <path class="cls-13" d="M61.62,55.89s-9.77-10.22-9.35-28.35"/>
      <path class="cls-13" d="M107.31,49.09s7.84-11.71-.53-30.45"/>
      <path class="cls-13" d="M150.67,58.29s12.13-9.81,10.8-30.49"/>
      <path class="cls-13" d="M163.81,68.99s4.93-19.64,25.07-15.72"/>
      <path class="cls-14" d="M52.26,80.19l15.28,4.44,7.08.89s7.83,2.13,6.34-8l16.4,2.67s14.35,4.09,7.83-5.16l6.52,2.31s11,4.09,4.47-9.51l7.83,4.53s6.34,3.73,7.83-1.78c0,0,8.39,4.8,11.37,1.42,0,0,4.29,8,10.07,8.18,0,0,9.88,4.62,7.64-2.67,0,0,9.88,16,10.81-1.6l-22.37-8.09-41.75-6.49-33.37-4.09-25.44-7.2-5.31,15.07-1.68,13.73,10.44,1.33Z"/>
      <path class="cls-15" d="M120.06,81.65s-.52,7.63-2.68,8.7c0,0,33.08.48,41.48,12.79,0,0-1.59-17.09-10.99-16.64,0,0-1.76-3.18-27.81-4.85Z"/>
      <path class="cls-9" d="M115.98,108s-1.12-4.4,5.31-4.4c0,0,22.23-3.2,29.64,4.93l7.69,7.07-2.1,26.93s-14.54,3.73-23.49,1.87c0,0-6.43.4-17.75-7.33l.7-29.07Z"/>
      <ellipse class="cls-16" cx="135.73" cy="124.31" rx="14.91" ry="17.33"/>
      <ellipse class="cls-17" cx="129.21" cy="116.94" rx="3.17" ry="3.02"/>
      <ellipse class="cls-17" cx="141.79" cy="116.14" rx="2.33" ry="2.22"/>
      <path class="cls-15" d="M85.33,80.85s.52,7.63,2.68,8.7c0,0-33.08.48-41.48,12.79,0,0,1.59-17.09,10.99-16.64,0,0,1.76-3.18,27.81-4.85Z"/>
      <path class="cls-9" d="M90.81,107.47s1.12-4.4-5.31-4.4c0,0-22.23-3.2-29.64,4.93l-7.69,7.07,2.1,26.93s14.54,3.73,23.49,1.87c0,0,6.43.4,17.75-7.33l-.7-29.07Z"/>
      <ellipse class="cls-16" cx="71.05" cy="123.78" rx="14.91" ry="17.33"/>
      <ellipse class="cls-17" cx="77.58" cy="116.4" rx="3.17" ry="3.02"/>
      <ellipse class="cls-17" cx="64.86" cy="115.74" rx="2.47" ry="2.36"/>
      <path class="cls-12" d="M91.15,159.16s1.63,2.37,13,1.76c0,0,7.95.2,11.08-2.03l-1.38.91.18,3.86s-.43,5.45-6.53,7.21c0,0-4.94,2.54-9.13.14,0,0-3.94-1.15-6-7.01l-.04-3.96-1.17-.88Z"/>
      <path class="cls-7" d="M96.33,169.26s7.03-5.28,14.01-.51c0,0-7.4,6.5-14.01.51Z"/>
      <path class="cls-3" d="M92.46,160.76v1.96s7.57,3.73,21.04-.07l.13-2.68s-5.56,2.88-21.16.78Z"/>
    </g>
  </g>
</svg>