<?xml version="1.0" encoding="UTF-8"?>
<svg id="Capa_2" data-name="Capa 2" xmlns="http://www.w3.org/2000/svg" viewBox="0 0 1667.21 717.1">
  <defs>
    <style>
      .cls-1 {
        fill: #e17b1f;
        stroke-width: 0px;
      }
    </style>
  </defs>
  <g id="Tierra">
    <path class="cls-1" d="M1667.21,580.53c-1.01,17.5-5.92,58.63-36.77,91.91-51.51,55.56-133.46,44.06-140.94,42.89-102.73-16.05-105.17-120.4-224.68-185.87-97.4-53.35-201.07-41.73-232.85-36.77-167.52,26.15-190.17,156.16-314.55,153.19-122.11-2.92-144.83-129.3-257.36-120.51-108.62,8.48-120.79,128.81-254.79,143.58-6.92.76-133.61,13-182.32-65.96-20.1-32.58-19.46-68.57-16.83-90.29C4.09,341.81,2.04,170.9,0,0h1660.6c2.21,193.51,4.41,387.02,6.62,580.53Z"/>
  </g>
</svg>