<?xml version="1.0" encoding="UTF-8"?>
<svg id="Capa_2" data-name="Capa 2" xmlns="http://www.w3.org/2000/svg" viewBox="0 0 1562.4 641.44">
  <defs>
    <style>
      .cls-1 {
        fill: #e17b1f;
      }

      .cls-1, .cls-2, .cls-3 {
        stroke-width: 0px;
      }

      .cls-2 {
        fill: #fff;
      }

      .cls-3 {
        fill: #4a0f10;
      }
    </style>
  </defs>
  <g id="Capa_1-2" data-name="Capa 1">
    <g>
      <path class="cls-1" d="M39.27,606.73c503.14-4.65,1006.28-9.29,1509.41-13.94,0,0,85.15-380.95-168.81-306.25-7.86-7.92-39.53-37.97-88.85-40.16-31.52-1.4-55.61,9.22-67.08,15.26-.18-44.68-25.56-84.64-64.29-101.47-46.76-20.32-90.28,2.93-95.55,5.86,8.7-58.88-25.74-112.09-71.69-125.13-55.44-15.73-125.51,27.62-134.47,101.22-4.22-45.3-22.28-86.73-50.58-95.54-38.15-11.88-103.72,32.79-128.69,125.42,26.07-72.7-10.61-146.79-64.81-166.46-60.54-21.97-146.27,22.75-161.71,109.2-2.07-7.24-14.96-49.76-57.33-69.72-28.87-13.6-55.58-9.26-65.73-7.47-44.96,7.94-70.24,39.82-76.19,47.81-32.29,43.32-23.96,91.85-22.41,100.09,10.59,33.03,10.63,43.24,7.47,44.82-8.1,4.04-30.11-52.03-68.72-56.77-30.53-3.75-57.39,26.33-67.23,37.35-57.69,64.62-39.16,162.74-34.36,185.25-4.75-1.36-39.55-10.91-56.77,5.98-18.97,18.61-15.03,67.77,26.89,107.56.5,32.37,1,64.74,1.49,97.1Z"/>
      <path class="cls-2" d="M77.11,633.97c461.9-4.27,923.81-8.53,1385.71-12.8,0,0,78.17-349.73-154.98-281.15-7.21-7.27-36.29-34.86-81.57-36.87-28.93-1.29-51.05,8.46-61.58,14.01-.16-41.02-23.46-77.7-59.02-93.15-42.93-18.65-82.89,2.69-87.72,5.38,7.99-54.06-23.63-102.9-65.81-114.87-50.9-14.44-115.22,25.36-123.45,92.93-3.88-41.59-20.46-79.62-46.43-87.71-35.02-10.91-95.22,30.1-118.15,115.14,23.93-66.74-9.74-134.76-59.5-152.82-55.58-20.17-134.28,20.88-148.46,100.25-1.9-6.65-13.73-45.69-52.63-64.01-26.5-12.48-51.03-8.5-60.35-6.86-41.28,7.29-64.48,36.55-69.95,43.89-29.64,39.77-22,84.33-20.57,91.89,9.73,30.33,9.76,39.7,6.86,41.14-7.43,3.71-27.64-47.77-63.09-52.12-28.03-3.44-52.69,24.17-61.72,34.29-52.97,59.32-35.95,149.4-31.54,170.06-4.36-1.25-36.31-10.02-52.12,5.49-17.42,17.08-13.8,62.22,24.69,98.75.46,29.72.91,59.43,1.37,89.15Z"/>
      <path class="cls-3" d="M183.83,641.44c389.53-3.6,779.06-7.19,1168.59-10.79,0,0,65.93-294.93-130.69-237.1-6.08-6.13-30.6-29.39-68.79-31.09-24.4-1.09-43.05,7.14-51.93,11.81-.14-34.59-19.79-65.53-49.78-78.56-36.2-15.73-69.9,2.27-73.98,4.53,6.74-45.59-19.93-86.78-55.5-96.87-42.92-12.18-97.17,21.39-104.11,78.37-3.27-35.07-17.25-67.14-39.16-73.97-29.54-9.2-80.3,25.38-99.63,97.1,20.18-56.29-8.21-113.64-50.17-128.87-46.87-17.01-113.24,17.61-125.19,84.54-1.6-5.61-11.58-38.53-44.38-53.98-22.35-10.53-43.03-7.17-50.89-5.78-34.81,6.15-54.38,30.83-58.99,37.01-25,33.54-18.55,71.11-17.35,77.49,8.2,25.57,8.23,33.48,5.78,34.7-6.27,3.13-23.31-40.28-53.2-43.95-23.64-2.9-44.43,20.39-52.05,28.91-44.67,50.03-30.31,125.99-26.6,143.42-3.68-1.06-30.62-8.45-43.95,4.63-14.69,14.41-11.64,52.47,20.82,83.27.39,25.06.77,50.12,1.16,75.18Z"/>
    </g>
  </g>
</svg>