<?xml version="1.0" encoding="UTF-8"?>
<svg id="Capa_2" data-name="Capa 2" xmlns="http://www.w3.org/2000/svg" viewBox="0 0 233.66 472.06">
  <defs>
    <style>
      .cls-1 {
        stroke-width: .75px;
      }

      .cls-1, .cls-2, .cls-3, .cls-4, .cls-5, .cls-6, .cls-7, .cls-8, .cls-9, .cls-10, .cls-11, .cls-12, .cls-13, .cls-14, .cls-15, .cls-16, .cls-17, .cls-18, .cls-19, .cls-20, .cls-21, .cls-22, .cls-23, .cls-24, .cls-25, .cls-26, .cls-27, .cls-28, .cls-29, .cls-30, .cls-31, .cls-32, .cls-33, .cls-34, .cls-35, .cls-36, .cls-37, .cls-38, .cls-39, .cls-40, .cls-41, .cls-42, .cls-43, .cls-44, .cls-45, .cls-46, .cls-47, .cls-48, .cls-49, .cls-50 {
        stroke-miterlimit: 10;
      }

      .cls-1, .cls-7, .cls-15, .cls-17, .cls-38 {
        stroke: #9a7e64;
      }

      .cls-1, .cls-7, .cls-17, .cls-51, .cls-18, .cls-25, .cls-32 {
        fill: none;
      }

      .cls-2 {
        fill: #ca9230;
      }

      .cls-2, .cls-3, .cls-4, .cls-7, .cls-8, .cls-10, .cls-12, .cls-13, .cls-15, .cls-16, .cls-18, .cls-19, .cls-23, .cls-24, .cls-26, .cls-27, .cls-28, .cls-29, .cls-30, .cls-31, .cls-33, .cls-36, .cls-37, .cls-39, .cls-42, .cls-43, .cls-45, .cls-46, .cls-47, .cls-50 {
        stroke-width: .5px;
      }

      .cls-2, .cls-4, .cls-20, .cls-27, .cls-30, .cls-37, .cls-47, .cls-50 {
        stroke: #000102;
      }

      .cls-52 {
        fill: #5a3d24;
      }

      .cls-52, .cls-53, .cls-51, .cls-54, .cls-55, .cls-56, .cls-57, .cls-58, .cls-59, .cls-60, .cls-61, .cls-62 {
        stroke-width: 0px;
      }

      .cls-3 {
        fill: #bf8b2d;
      }

      .cls-3, .cls-26, .cls-49 {
        stroke: #020003;
      }

      .cls-4 {
        fill: #78563a;
      }

      .cls-5 {
        fill: #616363;
      }

      .cls-5, .cls-6, .cls-8, .cls-9, .cls-11, .cls-13, .cls-14, .cls-18, .cls-22, .cls-24, .cls-25, .cls-34, .cls-35, .cls-36, .cls-42, .cls-44, .cls-45 {
        stroke: #000;
      }

      .cls-5, .cls-6, .cls-9, .cls-14, .cls-34, .cls-44 {
        stroke-width: .87px;
      }

      .cls-6 {
        fill: #d1ab8e;
      }

      .cls-8 {
        fill: #e8d5b5;
      }

      .cls-9 {
        fill: #fefefe;
      }

      .cls-10 {
        fill: #472e19;
        stroke: #201610;
      }

      .cls-11, .cls-25, .cls-49 {
        stroke-width: .25px;
      }

      .cls-11, .cls-36 {
        fill: #fee5c8;
      }

      .cls-12 {
        opacity: .11;
      }

      .cls-12, .cls-16, .cls-28, .cls-29, .cls-31, .cls-39, .cls-43, .cls-46 {
        stroke: #020000;
      }

      .cls-12, .cls-16, .cls-28, .cls-29, .cls-43, .cls-46 {
        fill: #bfa17f;
      }

      .cls-13 {
        fill: #e6d2aa;
      }

      .cls-14 {
        fill: #6d5645;
      }

      .cls-53 {
        fill: #4b3514;
      }

      .cls-15, .cls-31 {
        fill: #eaddc9;
      }

      .cls-16 {
        opacity: .21;
      }

      .cls-19, .cls-33 {
        stroke: #010101;
      }

      .cls-19, .cls-39 {
        fill: #ecddc9;
      }

      .cls-20, .cls-26, .cls-33 {
        fill: #5e452f;
      }

      .cls-21 {
        fill: #d6b9a2;
      }

      .cls-21, .cls-48 {
        stroke: #977a64;
        stroke-width: 3.49px;
      }

      .cls-54 {
        fill: #ddcebf;
      }

      .cls-55, .cls-22 {
        fill: #ead790;
      }

      .cls-56 {
        fill: #575450;
      }

      .cls-57 {
        fill: #5b5a5a;
      }

      .cls-22, .cls-35, .cls-41 {
        stroke-width: 1.16px;
      }

      .cls-23 {
        stroke: #a57e60;
      }

      .cls-23, .cls-42 {
        fill: #bfa180;
      }

      .cls-24 {
        fill: #d5b193;
      }

      .cls-27 {
        fill: #d89b2d;
      }

      .cls-28 {
        opacity: .1;
      }

      .cls-29 {
        opacity: .09;
      }

      .cls-30 {
        fill: #d39b28;
      }

      .cls-32 {
        stroke: #050505;
        stroke-width: .58px;
      }

      .cls-34 {
        fill: #cd6365;
      }

      .cls-35 {
        fill: #4c4b4b;
      }

      .cls-58, .cls-38 {
        fill: #9a7e64;
      }

      .cls-37, .cls-49 {
        fill: #d4af92;
      }

      .cls-40 {
        fill: #000;
        stroke: #1d1d1b;
        stroke-linecap: round;
      }

      .cls-41 {
        fill: #bea78e;
        stroke: #4b443c;
      }

      .cls-59 {
        fill: #bdac9c;
      }

      .cls-60 {
        fill: #b1b2b0;
      }

      .cls-61 {
        fill: #fff;
      }

      .cls-44 {
        fill: #da2728;
      }

      .cls-45 {
        fill: #dcba9f;
      }

      .cls-46 {
        opacity: .14;
      }

      .cls-47 {
        fill: #6f4d31;
      }

      .cls-48 {
        fill: #d4b8a0;
      }

      .cls-50 {
        fill: #eddeca;
      }

      .cls-62 {
        fill: #d4c0a8;
      }
    </style>
  </defs>
  <g id="Asombrado">
    <g>
      <g>
        <path class="cls-37" d="M155.94,392.4l1.69,52.04s6.86,8.43,6.68,10.51c0,0,2.38,8.22-4.18,6.6,0,0-1.6,2.98-6.2,1.9,0,0-4.52,3.46-7.68.24,0,0-5.96,5.73-14.45-2.22l-5.87-2.89-4.25-4.79-.63-.45s-.36-33.25-1.72-34.06-1.54-21.68-1.54-21.68v-3.34s38.15-1.84,38.15-1.84Z"/>
        <path class="cls-47" d="M156.03,426.74s-32.02,13.61-34.06,26.86h-1.08s.48-10,.48-10c0,0,6.48-8.55,19.07-15.06,0,0,13.79-6.14,16.19-8.67,0,0,1.2,7.47-.6,6.87Z"/>
        <path class="cls-47" d="M120.05,426.72s22.32,7,22.85,7.36c0,0,10.27,2.16,14.77,11.12,0,0,.69-9.59-1.22-9.74,0,0-8.82-8.15-19.41-9.05,0,0-13.4-2.65-17.1-5.83l.11,6.14Z"/>
        <path class="cls-47" d="M157.28,440.21s-7.6,7.11-14.23,6.63c0,0-15.92,0-22.43-5.18l.48,6.75s16.64,5.66,17.12,3.13l15.56-2.77s3.74-1.33,3.5-8.55Z"/>
        <path class="cls-47" d="M164.46,455.48s-.6-7.23-6.69-10.36c0,0-8.85-6.14-17.93-2.29,0,0-11.6,2.41-14.35,14.94l-4.54-5.3s-1.43,6.63,2.27,8.07c0,0,2.63,4.94,10.16,7.71,0,0,11.48,3.73,19.49,1.33,0,0,17.33-2.29,12.07-11.56,0,0-.76,4.61-5.65,2.94,0,0-.54,2.98-6.46,2.12,0,0-5.11,3.88-6.86-.63,0,0-.31,3.52-6.28,2.48,0,0-5.65-.05-8.2-3.79,0,0-.4-7.09,10.36-10.66,0,0,11.66-2.44,16.23.36,0,0,6.53,3.07,6.38,4.65Z"/>
        <path class="cls-49" d="M159.1,456.58s1.01,3.33-.24,5.44"/>
        <path class="cls-49" d="M153.07,457.67s1.01,3.33-.24,5.44"/>
        <path class="cls-49" d="M146.22,457.67s1.01,3.33-.24,5.44"/>
        <path class="cls-52" d="M156.14,410.17l.87,8.33s-34.76,3.1-38.02,0v-7.55s18.69,3.29,37.15-.77Z"/>
      </g>
      <g>
        <path class="cls-37" d="M62.29,393.83l-1.69,52.04s-6.86,8.43-6.68,10.51c0,0-2.38,8.22,4.18,6.6,0,0,1.6,2.98,6.2,1.9,0,0,4.52,3.46,7.68.24,0,0,5.96,5.73,14.45-2.22l5.87-2.89,4.25-4.79.63-.45s.36-33.25,1.72-34.06c1.35-.81,1.54-21.68,1.54-21.68v-3.34l-38.15-1.84Z"/>
        <path class="cls-47" d="M62.2,428.17s32.02,13.61,34.06,26.86h1.08l-.48-10s-6.48-8.55-19.07-15.06c0,0-13.79-6.14-16.19-8.67,0,0-1.2,7.47.6,6.87Z"/>
        <path class="cls-47" d="M98.18,428.15s-22.32,7-22.85,7.36c0,0-10.27,2.16-14.77,11.12,0,0-.69-9.59,1.22-9.74,0,0,8.82-8.15,19.41-9.05,0,0,13.4-2.65,17.1-5.83,0,0-.03,1.45-.11,6.14Z"/>
        <path class="cls-47" d="M60.95,441.63s7.6,7.11,14.23,6.63c0,0,15.92,0,22.43-5.18l-.48,6.75s-16.64,5.66-17.12,3.13l-15.56-2.77s-3.74-1.33-3.5-8.55Z"/>
        <path class="cls-47" d="M53.77,456.9s.6-7.23,6.69-10.36c0,0,8.85-6.14,17.93-2.29,0,0,11.6,2.41,14.35,14.94l4.54-5.3s1.43,6.63-2.27,8.07c0,0-2.63,4.94-10.16,7.71,0,0-11.48,3.73-19.49,1.33,0,0-17.33-2.29-12.07-11.56,0,0,.76,4.61,5.65,2.94,0,0,.54,2.98,6.46,2.12,0,0,5.11,3.88,6.86-.63,0,0,.31,3.52,6.28,2.48,0,0,5.65-.05,8.2-3.79,0,0,.4-7.09-10.36-10.66,0,0-11.66-2.44-16.23.36,0,0-6.53,3.07-6.38,4.65Z"/>
        <path class="cls-49" d="M59.13,458.01s-1.01,3.33.24,5.44"/>
        <path class="cls-49" d="M65.16,459.09s-1.01,3.33.24,5.44"/>
        <path class="cls-49" d="M72,459.09s-1.01,3.33.24,5.44"/>
        <path class="cls-52" d="M62.1,409.96l-.9,8.33s35.86,3.1,39.22,0v-7.55s-19.28,3.29-38.33-.77Z"/>
      </g>
      <g>
        <path class="cls-31" d="M59.46,326.43h-1.2s-5.42,1.08-9.03,26.5c0,0-7.47,32.4-6.5,38.67,0,0,5.78,2.89,11.8,3.13v2.05s8.43,5.66,38.66,5.42c0,0-.6,1.57,6.02,1.45,0,0,28.78,2.17,33.36-1.81,0,0,32.76-.12,34.56-6.75,0,0,8.79.48,12.4-3.25,0,0-2.41-29.63-6.02-30.11l-8.67-35.29H59.46Z"/>
        <path class="cls-51" d="M112.83,308.96v16.8s-8.67,14.64,4.7,19.51l19.69,5.24s5.78-4.16,11.02.9"/>
        <path class="cls-17" d="M45.04,381.69s3.84,2.72,11.9,4.21"/>
        <polyline class="cls-17" points="44.64 384.75 48.03 385.6 47.28 387.82 45.39 387.82 45.3 390.11 43.69 390.11"/>
        <line class="cls-17" x1="50.1" y1="385.61" x2="49.19" y2="393.68"/>
        <polyline class="cls-17" points="50.29 386.59 55.17 387.42 54.47 392.7 49.91 391.63"/>
        <path class="cls-17" d="M43.36,391.3s3.62,2.96,12.57,3.55"/>
        <path class="cls-62" d="M64.16,340.15s-3.68,13.38-4.31,21.74c0,0-3.06,24.24-3.5,28.07l-1.17,12.3"/>
        <path class="cls-62" d="M81.14,341.37s-2.05,5.22-1.75,7.92c0,0-.3,8.24-.32,9.53l.21,4.05"/>
        <path class="cls-54" d="M96.81,343.49s-1.5,3.11-1.39,4.68c0,0-.44,4.82-.49,5.58v2.36"/>
        <path class="cls-54" d="M95.63,390.75s-1.81,4.2-1.6,6.35c0,0-.39,6.58-.43,7.61l.11,3.23"/>
        <rect class="cls-38" x="51.58" y="389.04" width="1.22" height="1.22" transform="translate(-48.44 9.62) rotate(-7.2)"/>
        <rect class="cls-38" x="47.32" y="391.1" width=".47" height=".08" transform="translate(-48.67 9.05) rotate(-7.2)"/>
        <path class="cls-17" d="M57.54,387.9s9.62,5,36.56,5.87"/>
        <polyline class="cls-17" points="57.54 393.25 58.42 390.84 62.28 391.71 62.28 394.45 59.31 393.72 59.06 396.05 63.73 396.7 64.85 390.84"/>
        <path class="cls-17" d="M56.33,396.18s4.54,4.88,37.77,5.42"/>
        <polyline class="cls-17" points="65.79 398.43 67.08 392.08 74.31 393.61"/>
        <polyline class="cls-17" points="71.98 394.05 71.98 398.31 68.12 397.74 68.61 394.05 69.97 394.61"/>
        <line class="cls-17" x1="74.89" y1="391.8" x2="73.73" y2="399.99"/>
        <rect class="cls-17" x="77.11" y="394.33" width="4.66" height="4.74"/>
        <polyline class="cls-17" points="83.98 392.81 83.98 399.54 88.32 399.54 88.32 397.13 86.15 397.05 86.15 394.64 90.25 394.96 90.25 399.54"/>
        <line class="cls-17" x1="91.69" y1="395.25" x2="94.15" y2="395.25"/>
        <line class="cls-17" x1="91.69" y1="399.99" x2="94.18" y2="399.99"/>
        <line class="cls-17" x1="92.94" y1="397.62" x2="94.17" y2="397.62"/>
        <rect class="cls-38" x="78.89" y="396.15" width="1.1" height="1.1"/>
        <rect class="cls-17" x="162.69" y="392.03" width="3.21" height="4.74"/>
        <rect class="cls-38" x="163.92" y="393.85" width=".75" height="1.1"/>
        <path class="cls-17" d="M94.1,393.84s23.53,3.1,37.36-1.03"/>
        <path class="cls-17" d="M94.1,402.59s19.58,3.86,38.88-.55"/>
        <polyline class="cls-17" points="94.66 396.35 97.08 396.35 95.87 401.57"/>
        <polyline class="cls-17" points="97.83 401.75 99.34 401.75 99.34 396.53 105.99 396.53 105.99 402.16 110.6 402.16 110.6 396.93 107.41 397.09 107.59 401.75"/>
        <polyline class="cls-17" points="103.61 399.04 101.28 399.04 101.28 401.85 103.61 401.85 103.61 403.26"/>
        <line class="cls-17" x1="112.64" y1="394.94" x2="112.64" y2="404.15"/>
        <polyline class="cls-17" points="119.27 399.76 118.95 396.73 114.64 397.18 115.13 401.89 122.24 401.15 121.75 396.44"/>
        <line class="cls-17" x1="117.11" y1="401.51" x2="116.83" y2="398.84"/>
        <polyline class="cls-17" points="131.34 395.51 125.1 396.29 125.31 400.73 129.56 400.53 129.35 396.09"/>
        <line class="cls-15" x1="127.04" y1="398.12" x2="129.01" y2="398.12"/>
        <path class="cls-17" d="M131.59,393.26s18.6-.32,33.61-4.23l1.28,8.84c-10.39,3.86-34.4,4.12-34.4,4.12"/>
        <polyline class="cls-17" points="132.02 395.67 135.23 395.67 135.23 397.87 132.93 397.87 132.93 400.17 137.64 400.17 137.43 395.03"/>
        <polyline class="cls-17" points="139.78 401.35 139.57 395.03 143.59 395.03 143.86 399.32 140.05 399.48"/>
        <polyline class="cls-17" points="150.66 393.85 145.36 394.39 146.4 399.26 152.11 398.19"/>
        <line class="cls-17" x1="148.73" y1="398.19" x2="148.32" y2="394.09"/>
        <path class="cls-17" d="M152.11,391.44s1.07,7.82,1.55,7.82"/>
        <polyline class="cls-17" points="154.02 394.66 155.42 394.4 155.42 398.31 159.92 397.54 159.6 394.88 158.85 395.25"/>
        <polyline class="cls-17" points="158.5 395.46 157.22 395.46 157.22 392.83 161.29 392.24"/>
        <path class="cls-59" d="M131.79,375.65s-1.5,7.48-.76,11.55c0,0,.92,12.25,1.09,14.17l.85,6.08"/>
        <path class="cls-59" d="M163.1,376.82s2.56,5.36,2.63,8.45c0,0,1.32,9.15,1.5,10.59l.32,4.59"/>
        <path class="cls-17" d="M178.64,385.98c-6.59,2.31-12.44,2.48-12.44,2.48"/>
        <polyline class="cls-17" points="168.76 390.01 169.56 394.99 172.94 393.86"/>
        <polyline class="cls-17" points="170.85 390.01 173.66 389.45 174.7 393.86 178.64 392.5"/>
        <polyline class="cls-17" points="176.87 392.5 175.35 388.16 177.76 387.52"/>
        <line class="cls-17" x1="176.55" y1="390.33" x2="178.64" y2="390.01"/>
        <path class="cls-17" d="M166.68,388.87s.97,7.33,1.94,7.48c0,0,8.03-.23,10.85-2.6"/>
        <line class="cls-17" x1="167.28" y1="396.56" x2="168.45" y2="396.35"/>
      </g>
      <g>
        <path class="cls-24" d="M36.2,291.66l-2.89,11.56s-1.93.48-1.93,5.78l-5.78,22.65-3.61,4.82v18.55l7.11-6.75s-1.57,8.67,7.11,6.75l4.82,8.43s6.5-.24,9.63-16.62l11.8-42.88-26.25-12.29Z"/>
        <path class="cls-50" d="M50.88,257.23l1.45-2.41s10.84-4.1,14.69,3.37c0,0-2.53,28.79-3.49,38.55l-.96,17.47s-19.75-3.49-19.39-8.43l-.72,1.57s-13.13-6.26-12.65-7.47c0,0,15.29-33.49,21.08-42.64Z"/>
        <path class="cls-17" d="M35.25,288.25s16.26,11.08,25.91,11.98"/>
        <path class="cls-17" d="M31.86,296s17.31,11.75,27.59,12.72"/>
        <path class="cls-17" d="M34.43,290.48s2.13,1.51,2.15,1.52c.03.02,2.81,1.99,2.84,2.01-.69,1.04-1.38,2.08-2.07,3.12-1.51-.99-3.03-1.99-4.54-2.98"/>
        <polyline class="cls-17" points="41.68 296.83 42.59 294.85 46.34 296.83"/>
        <polyline class="cls-17" points="42.66 297.67 41.05 299.76 43.38 300.99"/>
        <polyline class="cls-17" points="51.39 301.37 50.32 301.37 50.32 303.3 47.59 302.34 49.25 298.53 53.16 299.93 51.77 304.8"/>
        <polygon class="cls-17" points="58.86 306.08 55 305.01 56.13 300.88 60.2 302.35 58.86 306.08"/>
        <path class="cls-1" d="M37.05,291.77c-.82,1.36-1.64,2.71-2.46,4.07"/>
        <path class="cls-7" d="M42.22,292.57c-1.46,2.31-2.93,4.63-4.39,6.94"/>
        <path class="cls-7" d="M48.54,296.27c-1.46,2.31-2.93,4.63-4.39,6.94"/>
        <path class="cls-7" d="M55.56,298.89c-1.03,2.54-2.06,5.07-3.1,7.61"/>
        <rect class="cls-58" x="56.88" y="302.72" width="1.45" height="1.51" transform="translate(67.69 -5.25) rotate(12.62)"/>
        <rect class="cls-58" x="44.12" y="297.6" width="1.01" height="1.06" transform="translate(195.52 37.17) rotate(38.55)"/>
        <rect class="cls-58" x="36.65" y="294.21" width=".81" height=".85" transform="translate(191.69 41.12) rotate(38.55)"/>
        <rect class="cls-58" x="34.05" y="292.61" width=".81" height=".85" transform="translate(190.13 42.39) rotate(38.55)"/>
        <path class="cls-13" d="M23.05,323.42s13.54,30.54,16.45,31.82l15.16,23.3s-5,11.41-17.25,8.2c0,0-5-12.54-11.13-22.34,0,0-20.14-29.89-21.36-29.57l18.13-11.41Z"/>
        <g>
          <path class="cls-8" d="M5.75,336.95s-4.02-6.43,5.62-12.05c0,0,9.8-4.34,11.73-.48,0,0,1.88,5.14-3.86,9.11,0,0-8.07,6.07-13.5,3.43Z"/>
          <path class="cls-36" d="M8.89,334.28s-3.18-2.89,3.73-7.34c0,0,4.45-2.95,6.86-.43,0,0,.86,4.12-3.48,5.89,0,0-1.46,2.04-7.1,1.88Z"/>
          <line class="cls-18" x1="8.89" y1="334.28" x2="11.37" y2="337.26"/>
          <line class="cls-18" x1="19.55" y1="326.64" x2="22.4" y2="330.22"/>
          <path class="cls-25" d="M11.38,331.91s-.75-1.04,2.44-3.38c0,0,1.66-1.23,2.52-.43,0,0,.7,1.63-2.2,2.65,0,0-1.69,1.47-2.76,1.15Z"/>
          <path class="cls-25" d="M11.38,331.91l1.55,1.65.15.17"/>
          <line class="cls-25" x1="18.6" y1="330.44" x2="16.34" y2="328.1"/>
          <path class="cls-11" d="M16.58,328.53s1.89-.66,1.77-1.89"/>
        </g>
        <path class="cls-24" d="M38.22,349.33s-7.02,6.86-.86,11.95c0,0,5.73,1.5,6.64-5.2"/>
        <g>
          <path class="cls-10" d="M20.52,354.8s6.85.8,9.57-2.25l5.22-4.34-.43,2.87s-3.7,3.57-6.36,4.07c0,0-2.88,1.6-7.66,1.2l-.33-1.55Z"/>
          <path class="cls-10" d="M22.95,358.65l-.3-2.44s5.57,1.75,8.47-2.28l4.38-5.71.77,3.2s-2.31,4.04-5.45,5.64c0,0-5.15,2.89-7.88,1.6Z"/>
          <path class="cls-10" d="M17.83,351s-1.85-4.82-4.14,0c0,0,.48,3.78,4.98,5.26v.72l-4.14,2.53s-3.13,1.97-.84,3.62c0,0,2.17,1.21,3.42-2.05l3.17-3.78-2.09,4.14s-2.73,5.99.84,7.63c0,0,2.65.52.48-2.21-2.17-2.73-.12-.24-.12-.24,0,0-.94-4.18.97-5.5,0,0,.59-1.12.79-3.25l1.49-.08v-1.37l-1.49-.4-4.94,4.5s-1.37,1.41-1.69.8,4.53-4.37,4.53-4.37l-.03-1.21-2.76-4.04-.87-1.1s-.04-1.73,2.42.39Z"/>
        </g>
      </g>
      <g>
        <path class="cls-45" d="M194.4,280.77l2.71,9.51s4.29,2.61,2.84,5.86c0,0,3.92,4.1,2.93,6.58l5.8,17.53s13.77,12.44,6.73,22.52c0,0,1.49,5.11-12.91,9.64,0,0-11.2,3.81-13.62-7.92l-16.18-40.18-5.53-15.19,27.23-8.35Z"/>
        <path id="mano" class="cls-19" d="M159.2,248.29l.68-.24,14.25-5.06s11.56,15.54,15.9,28.07l7.71,18.31s-5.66,6.63-13.13,7.83l.12-1.57-1.45,2.65s-11.44,5.3-16.62,5.06c0,0-1.69-8.07-2.17-17.71l-4.34-36.74-.96-.6Z"/>
        <path class="cls-17" d="M192.24,276.7s-16.26,11.08-25.91,11.98"/>
        <path class="cls-17" d="M195.64,284.45s-17.31,11.75-27.59,12.72"/>
        <path class="cls-17" d="M193.07,278.93s-2.13,1.51-2.15,1.52c-.03.02-2.81,1.99-2.84,2.01l2.07,3.12c1.51-.99,3.03-1.99,4.54-2.98"/>
        <polyline class="cls-17" points="185.81 285.28 184.9 283.3 181.15 285.28"/>
        <polyline class="cls-17" points="184.83 286.12 186.44 288.21 184.11 289.44"/>
        <polyline class="cls-17" points="176.1 289.82 177.17 289.82 177.17 291.75 179.91 290.78 178.25 286.98 174.33 288.37 175.73 293.25"/>
        <polygon class="cls-17" points="168.64 294.52 172.49 293.45 171.37 289.33 167.3 290.8 168.64 294.52"/>
        <path class="cls-1" d="M190.45,280.21c.82,1.36,1.64,2.71,2.46,4.07"/>
        <path class="cls-7" d="M185.28,281.02c1.46,2.31,2.93,4.63,4.39,6.94"/>
        <path class="cls-7" d="M178.96,284.71c1.46,2.31,2.93,4.63,4.39,6.94"/>
        <path class="cls-7" d="M171.94,287.34c1.03,2.54,2.06,5.07,3.1,7.61"/>
        <rect class="cls-58" x="169.17" y="291.17" width="1.45" height="1.51" transform="translate(399.47 539.68) rotate(167.38)"/>
        <rect class="cls-58" x="182.37" y="286.04" width="1.01" height="1.06" transform="translate(504.49 396.72) rotate(141.45)"/>
        <rect class="cls-58" x="190.04" y="282.65" width=".81" height=".85" transform="translate(515.8 385.77) rotate(141.45)"/>
        <rect class="cls-58" x="192.64" y="281.06" width=".81" height=".85" transform="translate(519.44 381.31) rotate(141.45)"/>
      </g>
      <path id="tronco" class="cls-39" d="M62.84,249.04s-4.15,18.97-3.79,32.7l-.84,17.65s-9.33,13.37,4.64,18.25c0,0,14.51,6.87,20.65,5.42,0,0,5.24-3.61,10.84,1.08l42.63,1.81,6.68-5.6s3.43,1.26,6.14-.72c0,0,11.38-.72,17.88-7.59,0,0,2.89-2.17-.9-12.65l-5.42-52.76-38.84,8.49-10.57,20.42-16.34-24.03-32.76-2.47Z"/>
      <g>
        <path class="cls-26" d="M91.38,319.42l40.83-.9v14.64s-18.25,2.35-17.88,1.08c0,0-43.76,2.71-58.37-10.12v-12.91s13.03,6.05,35.43,8.21Z"/>
        <circle class="cls-40" cx="67.4" cy="322.49" r="1.07"/>
        <circle class="cls-40" cx="80.04" cy="325.49" r="1.07"/>
        <circle class="cls-40" cx="85.88" cy="326.13" r="1.07"/>
        <circle class="cls-40" cx="91.72" cy="326.56" r="1.07"/>
        <path class="cls-3" d="M101.67,325.88s-.52-6.39,2.41-6.71h15.43v5.79l-.36,7.51s-.08,4.22-5.42,3.54l-8.68-.16s-3.69-.28-3.41-4.26v-2.81s2.77.05,2.77.05c0,0-.83,4.53,1.85,4.5s1.93.03,1.93.03h6.62s1.47-.11,1.63-2.79l.03-2.09h1.15s-.01-.05-.01-.05l-1.15.02-2.72.06s-1.29-1.29.53-2.04l3.16.16v-.11s-.95-.07-.95-.07l.17-3.25s-.44-2.05-3.17-1.73l-7.23.04s-2.17.32-1.89,2.57l-.04,2.21,2.68.11s1.69,1.57-.56,2.42l-2.08-.05-2.97-.04s-2.13-1.43.24-2.63l.06-.22Z"/>
      </g>
      <g>
        <path class="cls-43" d="M77.25,238.53s14.21-2.53,27.32,1.32c0,0,10.93.68,15.85-2.14h6.77s25.34-2.82,31.52-6.34c0,0,8.03.77,9.39,6.72,0,0,12.36.22,11.87,13.98,0,0-.37-5.72-11.62-.55,0,0-5.19,1.76-11.87,7.49,0,0,1.85,34.46,4.45,37.54,0,0,2.47,10.13.37,12.44,0,0-4.08-1.76-6.8,0,0,0-2.72,1.43-3.96,1.32,0,0-3.09-2.09-2.72-3.74,0,0-11.37-.99-7.91-5.61,0,0-10.88-.55-10.01-7.27l-.12-22.84s-15.33,4.46-33.75-2.92c0,0-18.66-9.03-17.55-13.21l-1.24-16.18Z"/>
        <path class="cls-29" d="M83.16,242.48s19.74,7.5,33.45,6.32c0,0,16.9-7.5,19.74-12.43"/>
        <path class="cls-46" d="M136.34,246.77s13.21-8.67,12.87-12.48"/>
        <path class="cls-12" d="M84.81,247.41s19.38,13.39,33.33,11.36c0,0,18.67.21,35.1-13.93"/>
        <path class="cls-28" d="M124.88,263.91s14.65-.43,27.54-17.14c0,0,6.38-7.33,7.92-6.24,0,0,3.58-3.7,7.34-3.71"/>
        <path class="cls-46" d="M152.06,252.77s14.06-9.64,17.37-9.11"/>
        <path class="cls-16" d="M129.69,271.42s17.91-13.17,26.79-12.38"/>
      </g>
      <g id="Bolso">
        <path class="cls-20" d="M139.48,332.58s2.05,15.9,3.13,17.23c0,0,2.65,15.9,3.97,16.98,0,0,.36,6.5,10.6,4.46,0,0,21.56-6.75,23.12-16.62,0,0-1.08-10.84-3.01-10.36,0,0,.84-5.78-2.29-8.07l-4.58-14.7-30.95,11.08Z"/>
        <path class="cls-33" d="M129.82,320.62s5.57-5.24,12.86-1.26c0,0,4.61-.45,6.14-1.49,0,0,5.76,1.13,11.13-2.67,0,0,8.06-6.87,11.52,3.98l7.1,17.71s5.57,6.69-7.87,13.55c0,0-15.55,6.69-21.69,3.61,0,0-4.03,3.07-8.64-15.9,0,0-4.41-20.24-10.56-17.53Z"/>
        <path class="cls-33" d="M135.58,318.15s-13.49-4.3-6.74,13.47l8.19,32.6s.96,7.02,7.47,6c0,0-3.48-1.73-3.48-2.41l3.7,2.33s6.77,1.53,8.08,1.02c0,0-5.33-2.42-7.41-18.04l-6.41-28.36-3.4-6.62Z"/>
        <path class="cls-4" d="M159.52,342.4s-.24-5.87,5.46-3.29c0,0,2.97,4.98,2.73,8.76l2.17,9.08s2.17,6.43-.8,6.99l-2.97.56s-3.21-1.04-2.17-6.75l-4.42-15.35Z"/>
        <path class="cls-2" d="M164.21,358.69s-1.57-4.06.2-4.58l4.14-1.61s1.69-.16,1.61,2.85v.8s1.49-.12,1.49-.12c0,0,.72-6.27-3.86-4.86l-4.58,1.41s-2.49,2.09-.48,6.11c0,0,.48,2.89,3.9,1.85,0,0,5.27-.92,5.06-3.94v-.47s-1.56.11-1.56.11c0,0,.38,1.74-1.63,1.6l-2.65.78s-1.75.57-1.64.07Z"/>
        <path class="cls-26" d="M63.63,254.83s54.91,80.7,68.54,78.53c0,0,.69-.33-.25-1.21-.34-.33-.91-.73-1.81-1.21-3.35-1.81,1.83.76,1.83.76l3.32-3.12-.56-1.1,2.4,2.63s3.92-.34-.91-5.2c0,0-28.4-26.53-29.19-31.29,0,0-22.8-30.92-30.12-39.49-7.33-8.57-12.09.64-12.09.64l-1.17.06Z"/>
      </g>
      <g>
        <path class="cls-42" d="M81.28,243.23l9.18-.48s-12.82-1.69-12.59-2.9-13.41-3.87-13.41-3.87c0,0-1.65,1.21-.47,2.54,0,0-5.41-3.51-8.47,6.17,0,0-.55.23-1.37.7-2.7,1.59-8.27,5.94-5.92,13.93l2.59-3.02s6-2.54,11.29.73c0,0,.24-21.17,18.82-13.06"/>
        <path class="cls-23" d="M55.68,244.84s5.52.06,8.7,3.34"/>
        <path class="cls-23" d="M64.67,238.97s4.23,2.52,4.82,4.07"/>
        <line class="cls-23" x1="77.71" y1="239.72" x2="77.44" y2="242.28"/>
        <circle class="cls-30" cx="71.24" cy="250.53" r="11.21"/>
        <circle class="cls-30" cx="71.24" cy="251.1" r="8.73"/>
        <path class="cls-27" d="M69.93,245.44l1.26-3.7,1.79,5.04s.75,1.77,1.77,1.93l4.66,1.02v1.07l-4.74,1.34s-.72,2.14-2.01,1.88l-.59,5.3h-1.45l-1.23-5.46s-1.61-.75-1.61-1.55l-4.71-1.39v-1.07s4.34-.59,5.2-1.45c0,0,1.55-.96,1.66-2.68"/>
        <circle class="cls-53" cx="71.24" cy="251.1" r="2.23"/>
      </g>
      <path class="cls-6" d="M20.17,121.56s.63,28.8,8.39,37.55c0,0-16.47,6.52-12.03,30.23,0,0,5.22,19.57,21.22,18.62,0,0,5.38,14.96,31.35,27.84,0,0,28.97,11.93,58.58,6.68,0,0,21.37.32,42.27-13.37,0,0,14.25-8.59,20.11-21.48,0,0,23.43,5.95,26.28-24.95,0,0,.95-17.85-14.88-25.17,0,0,5.07-5.89,6.49-24.66,0,0,1.9-11.14-1.27-16.87l-39.32-40.24-60.8-1.84-50.67,8.02-30.4,15.75-5.33,23.87Z"/>
      <path class="cls-48" d="M45.47,112.78s41.17-9.86,52.25-8.27c0,0,15.52-1.59,13.62,16.87,0,0,2.86,32.14.16,33.73,0,0,1.11,22.91-30.88,22.28,0,0-35.15,3.18-40.53-19.73,0,0-7.6-28.96,5.38-44.87Z"/>
      <path class="cls-21" d="M188.2,113.76s-41.17-9.86-52.25-8.27c0,0-15.52-1.59-13.62,16.87,0,0-2.86,32.14-.16,33.73,0,0-1.11,22.91,30.88,22.28,0,0,35.15,3.18,40.53-19.73,0,0,7.6-28.96-5.38-44.87Z"/>
      <polygon class="cls-5" points="21.02 137.72 37.26 136.23 37.81 150.72 22.86 146.01 21.02 137.72"/>
      <polygon class="cls-5" points="206.93 136.46 195.73 134.68 195.61 149.14 205.81 144.71 206.93 136.46"/>
      <path class="cls-32" d="M112.46,176.57l.47,1.7s.54,1,.8.04v-.23l1.85-.02s1.56,1.53,1.96,1.29l1.52.03,1.48-1.54,1.21.14s-.14,1.2.53.96c0,0,.77-.7.73-1.43v-1.09s-1.17-.79-1.65-.69c-.04,0-.07.02-.09.04-.4.26-4.12.04-4.12.04l-4.55.32-.26.18.1.29Z"/>
      <path class="cls-41" d="M57.3,227.3s-18.05-12.32-10.45-35.71c0,0,7.12-19.25,25.81-14.32l13.3,3.34,14.88,2.55,18.37,1.43,16.94-.95,20.9-3.66,10.61-1.91s19.32-2.7,19.47,19.41v5.25l-1.11,6.21-1.9,6.05-5.7,8.43-4.43,4.77-2.85,1.91-10.77,5.73-9.66,3.02-13.14,3.5-10.45.8-12.03.8-12.67-1.11-18.37-3.18-10.13-2.7-9.82-4.14-6.81-5.5Z"/>
      <path class="cls-35" d="M112.72,146.99v-2.94s6.17-1.67,8.23.72v2.55s-3.64-2.78-8.23-.32Z"/>
      <path class="cls-14" d="M30.09,175.84s.95-6.68-4.22-2.55c0,0-3.8,11.67,1.37,20.47,0,0-2.11-5.3,3.8-4.46,0,0,1.58,2.23,3.27.85,0,0-.63-2.23-2.22-2.33,0,0,1.9-1.8,1.16-6.89"/>
      <path class="cls-14" d="M199.67,173.7s-.95-6.68,4.22-2.55c0,0,3.8,11.67-1.37,20.47,0,0,2.11-5.3-3.8-4.46,0,0-1.58,2.23-3.27.85,0,0,.63-2.23,2.22-2.33,0,0-1.9-1.8-1.16-6.89"/>
      <path class="cls-22" d="M49.69,96.35s.16,20.66-25.02,22.77c0,0-18.68.81-24.07-22.77,0,0-1.11-12.85,10.45-22.61,0,0,8.07-6.67,18.84-3.9,0,0-7.76-16.1,2.85-27.98,0,0,10.13-13.66,26.44-8.3,0,0,.79-20.82,19.63-30.58,0,0,12.51-7.16,28.5,3.25,0,0,9.5,6.51,14.57,18.54,0,0,10.29-24.07,27.23-23.26,0,0,13.3-3.9,25.49,11.06,0,0,7.12,6.83,8.39,21.31,0,0,12.82-5.86,24.07,4.39,0,0,11.56,9.11,6.97,25.54,0,0,25.65,5.86,17.42,34.81,0,0-2.37,10.74-16.94,15.29,0,0-15.36,4.55-24.86-8.62,0,0-5.54-7.16-4.91-14.15l-39.95-13.19h-21.87l-39.56,4.84-31.39,4.81-2.28,8.75Z"/>
      <path class="cls-22" d="M45.63,84.7s-11.54-4.71-15.65-13.86"/>
      <path class="cls-22" d="M69.8,67.97s-11.07-12.2-10.59-33.83"/>
      <path class="cls-22" d="M121.55,59.85s8.88-13.97-.61-36.34"/>
      <path class="cls-22" d="M170.65,70.83s13.74-11.7,12.23-36.38"/>
      <path class="cls-22" d="M185.54,83.61s5.58-23.43,28.39-18.76"/>
      <path class="cls-55" d="M59.2,96.97l17.31,5.3,8.02,1.06s8.87,2.55,7.18-9.55l18.58,3.18s16.26,4.88,8.87-6.15l7.39,2.76s12.46,4.88,5.07-11.35l8.87,5.41s7.18,4.46,8.87-2.12c0,0,9.5,5.73,12.88,1.7,0,0,4.86,9.55,11.4,9.76,0,0,11.19,5.52,8.66-3.18,0,0,11.19,19.09,12.24-1.91l-25.33-9.65-47.29-7.74-37.79-4.88-28.82-8.59-6.02,17.98-1.9,16.39,11.82,1.59Z"/>
      <path class="cls-56" d="M94.16,102.76s1.28,9.03,3.81,10.12c0,0-37.31,3.44-45.68,18.82,0,0,.25-20.47,10.9-20.75,0,0,1.7-3.94,30.96-8.19Z"/>
      <g>
        <path class="cls-60" d="M62.95,124.45l-5.07,6.05v29.28s25.97,13.05,44.97-5.73l.63-32.14-40.53,2.55Z"/>
        <ellipse class="cls-57" cx="79.89" cy="143.7" rx="16.62" ry="19.57"/>
        <ellipse class="cls-61" cx="72.61" cy="132.88" rx="3.01" ry="3.02"/>
      </g>
      <path class="cls-56" d="M138.88,103.61s-1.28,9.03-3.81,10.12c0,0,37.31,3.44,45.68,18.82,0,0-.25-20.47-10.9-20.75,0,0-1.7-3.94-30.96-8.19Z"/>
      <g>
        <path class="cls-60" d="M170.09,125.3l5.07,6.05v29.28s-25.97,13.05-44.97-5.73l-.63-32.14,40.53,2.55Z"/>
        <ellipse class="cls-57" cx="153.15" cy="144.55" rx="16.62" ry="19.57"/>
        <ellipse class="cls-61" cx="160.44" cy="133.73" rx="3.01" ry="3.02"/>
      </g>
      <g>
        <path class="cls-34" d="M131.82,216.63c6.36.88,3.38-12.3,3.38-12.3-.42-7.32-9.71-10.82-9.71-10.82l-13.62-.21c-8.76-.85-10.03,12.3-10.03,12.3-2.22,12.73,4.86,11.14,4.86,11.14,0,0,14.36-1.59,25.12-.11Z"/>
        <path class="cls-9" d="M103.43,202.2s-.53-6.68,7.18-8.49h15.52s5.81,2.33,8.44,7.64l-31.14.85Z"/>
        <path class="cls-44" d="M107.34,213.13s-1.79,2.65,10.03,2.65c0,0,11.19.42,10.66-2.33,0,0-.74-2.65-10.13-1.06,0,0-10.03-.85-10.56.74Z"/>
      </g>
    </g>
  </g>
</svg>