<?xml version="1.0" encoding="UTF-8"?>
<svg id="Capa_2" data-name="Capa 2" xmlns="http://www.w3.org/2000/svg" viewBox="0 0 248.5 472.93">
  <defs>
    <style>
      .cls-1 {
        stroke-width: .75px;
      }

      .cls-1, .cls-2, .cls-3, .cls-4, .cls-5, .cls-6, .cls-7, .cls-8, .cls-9, .cls-10, .cls-11, .cls-12, .cls-13, .cls-14, .cls-15, .cls-16, .cls-17, .cls-18, .cls-19, .cls-20, .cls-21, .cls-22, .cls-23, .cls-24, .cls-25, .cls-26, .cls-27, .cls-28, .cls-29, .cls-30, .cls-31, .cls-32, .cls-33, .cls-34, .cls-35, .cls-36, .cls-37, .cls-38, .cls-39, .cls-40, .cls-41, .cls-42, .cls-43, .cls-44, .cls-45, .cls-46, .cls-47, .cls-48, .cls-49, .cls-50 {
        stroke-miterlimit: 10;
      }

      .cls-1, .cls-2, .cls-8, .cls-15, .cls-51, .cls-16, .cls-24, .cls-40 {
        fill: none;
      }

      .cls-1, .cls-8, .cls-14, .cls-15, .cls-35 {
        stroke: #9a7e64;
      }

      .cls-2 {
        stroke-width: 2.39px;
      }

      .cls-2, .cls-4, .cls-9, .cls-11, .cls-12, .cls-13, .cls-16, .cls-23, .cls-24, .cls-32, .cls-33, .cls-38, .cls-42, .cls-43, .cls-44, .cls-46, .cls-49 {
        stroke: #000;
      }

      .cls-3 {
        fill: #ca9230;
      }

      .cls-3, .cls-6, .cls-7, .cls-8, .cls-9, .cls-10, .cls-12, .cls-14, .cls-16, .cls-17, .cls-22, .cls-23, .cls-25, .cls-26, .cls-28, .cls-29, .cls-30, .cls-32, .cls-34, .cls-36, .cls-38, .cls-44, .cls-47, .cls-50 {
        stroke-width: .5px;
      }

      .cls-3, .cls-7, .cls-19, .cls-26, .cls-28, .cls-34, .cls-47, .cls-50 {
        stroke: #000102;
      }

      .cls-52 {
        fill: #5a3d24;
      }

      .cls-52, .cls-53, .cls-54, .cls-51, .cls-55, .cls-56, .cls-57, .cls-58, .cls-59, .cls-60, .cls-61 {
        stroke-width: 0px;
      }

      .cls-4 {
        fill: #b4b4b2;
      }

      .cls-4, .cls-13, .cls-33, .cls-42, .cls-43 {
        stroke-width: .9px;
      }

      .cls-5 {
        opacity: .09;
      }

      .cls-5, .cls-18, .cls-21, .cls-27, .cls-29, .cls-36, .cls-41, .cls-45 {
        stroke: #020000;
      }

      .cls-5, .cls-18, .cls-21, .cls-27, .cls-41, .cls-45 {
        fill: #bfa17f;
        stroke-width: .5px;
      }

      .cls-6 {
        fill: #bf8b2d;
      }

      .cls-6, .cls-25, .cls-48 {
        stroke: #020003;
      }

      .cls-53, .cls-37 {
        fill: #000;
      }

      .cls-7 {
        fill: #78563a;
      }

      .cls-9 {
        fill: #e8d5b5;
      }

      .cls-10 {
        fill: #472e19;
        stroke: #201610;
      }

      .cls-11, .cls-24, .cls-48 {
        stroke-width: .25px;
      }

      .cls-11, .cls-32 {
        fill: #fee5c8;
      }

      .cls-12 {
        fill: #e6d2aa;
      }

      .cls-54 {
        fill: #4b3514;
      }

      .cls-13 {
        fill: #d1ab8e;
      }

      .cls-14, .cls-29 {
        fill: #eaddc9;
      }

      .cls-17, .cls-30 {
        stroke: #010101;
      }

      .cls-17, .cls-36 {
        fill: #ecddc9;
      }

      .cls-18 {
        opacity: .11;
      }

      .cls-19, .cls-25, .cls-30 {
        fill: #5e452f;
      }

      .cls-55 {
        fill: #ddcebf;
      }

      .cls-56, .cls-49 {
        fill: #ead790;
      }

      .cls-57 {
        fill: #575450;
      }

      .cls-20 {
        fill: #bea78e;
        stroke: #4b443c;
      }

      .cls-20, .cls-46, .cls-49 {
        stroke-width: 1.19px;
      }

      .cls-21 {
        opacity: .14;
      }

      .cls-22 {
        stroke: #a57e60;
      }

      .cls-22, .cls-38 {
        fill: #bfa180;
      }

      .cls-23 {
        fill: #d5b193;
      }

      .cls-26 {
        fill: #d89b2d;
      }

      .cls-28 {
        fill: #d39b28;
      }

      .cls-31 {
        fill: #d4b8a0;
      }

      .cls-31, .cls-39 {
        stroke: #977a64;
        stroke-width: 3.58px;
      }

      .cls-33 {
        fill: #6d5645;
      }

      .cls-58, .cls-35 {
        fill: #9a7e64;
      }

      .cls-34, .cls-48 {
        fill: #d4af92;
      }

      .cls-37 {
        stroke: #1d1d1b;
        stroke-linecap: round;
      }

      .cls-59 {
        fill: #bdac9c;
      }

      .cls-39 {
        fill: #d6b9a2;
      }

      .cls-60 {
        fill: #fff;
      }

      .cls-40 {
        stroke: #050505;
        stroke-width: .6px;
      }

      .cls-41 {
        opacity: .21;
      }

      .cls-42 {
        fill: #5d5d5d;
      }

      .cls-43 {
        fill: #616363;
      }

      .cls-44 {
        fill: #dcba9f;
      }

      .cls-45 {
        opacity: .1;
      }

      .cls-46 {
        fill: #4c4b4b;
      }

      .cls-47 {
        fill: #6f4d31;
      }

      .cls-50 {
        fill: #eddeca;
      }

      .cls-61 {
        fill: #d4c0a8;
      }
    </style>
  </defs>
  <g id="Aburrido">
    <g>
      <g>
        <path class="cls-34" d="M163.44,393.28l1.69,52.04s6.86,8.43,6.68,10.51c0,0,2.38,8.22-4.18,6.6,0,0-1.6,2.98-6.2,1.9,0,0-4.52,3.46-7.68.24,0,0-5.96,5.73-14.45-2.22l-5.87-2.89-4.25-4.79-.63-.45s-.36-33.25-1.72-34.06-1.54-21.68-1.54-21.68v-3.34s38.15-1.84,38.15-1.84Z"/>
        <path class="cls-47" d="M163.53,427.62s-32.02,13.61-34.06,26.86h-1.08s.48-10,.48-10c0,0,6.48-8.55,19.07-15.06,0,0,13.79-6.14,16.19-8.67,0,0,1.2,7.47-.6,6.87Z"/>
        <path class="cls-47" d="M127.56,427.6s22.32,7,22.85,7.36c0,0,10.27,2.16,14.77,11.12,0,0,.69-9.59-1.22-9.74,0,0-8.82-8.15-19.41-9.05,0,0-13.4-2.65-17.1-5.83l.11,6.14Z"/>
        <path class="cls-47" d="M164.78,441.08s-7.6,7.11-14.23,6.63c0,0-15.92,0-22.43-5.18l.48,6.75s16.64,5.66,17.12,3.13l15.56-2.77s3.74-1.33,3.5-8.55Z"/>
        <path class="cls-47" d="M171.97,456.36s-.6-7.23-6.69-10.36c0,0-8.85-6.14-17.93-2.29,0,0-11.6,2.41-14.35,14.94l-4.54-5.3s-1.43,6.63,2.27,8.07c0,0,2.63,4.94,10.16,7.71,0,0,11.48,3.73,19.49,1.33,0,0,17.33-2.29,12.07-11.56,0,0-.76,4.61-5.65,2.94,0,0-.54,2.98-6.46,2.12,0,0-5.11,3.88-6.86-.63,0,0-.31,3.52-6.28,2.48,0,0-5.65-.05-8.2-3.79,0,0-.4-7.09,10.36-10.66,0,0,11.66-2.44,16.23.36,0,0,6.53,3.07,6.38,4.65Z"/>
        <path class="cls-48" d="M166.6,457.46s1.01,3.33-.24,5.44"/>
        <path class="cls-48" d="M160.57,458.55s1.01,3.33-.24,5.44"/>
        <path class="cls-48" d="M153.73,458.55s1.01,3.33-.24,5.44"/>
        <path class="cls-52" d="M163.64,411.05l.87,8.33s-34.76,3.1-38.02,0v-7.55s18.69,3.29,37.15-.77Z"/>
      </g>
      <g>
        <path class="cls-34" d="M69.8,394.7l-1.69,52.04s-6.86,8.43-6.68,10.51c0,0-2.38,8.22,4.18,6.6,0,0,1.6,2.98,6.2,1.9,0,0,4.52,3.46,7.68.24,0,0,5.96,5.73,14.45-2.22l5.87-2.89,4.25-4.79.63-.45s.36-33.25,1.72-34.06c1.35-.81,1.54-21.68,1.54-21.68v-3.34l-38.15-1.84Z"/>
        <path class="cls-47" d="M69.7,429.04s32.02,13.61,34.06,26.86h1.08l-.48-10s-6.48-8.55-19.07-15.06c0,0-13.79-6.14-16.19-8.67,0,0-1.2,7.47.6,6.87Z"/>
        <path class="cls-47" d="M105.68,429.02s-22.32,7-22.85,7.36c0,0-10.27,2.16-14.77,11.12,0,0-.69-9.59,1.22-9.74,0,0,8.82-8.15,19.41-9.05,0,0,13.4-2.65,17.1-5.83,0,0-.03,1.45-.11,6.14Z"/>
        <path class="cls-47" d="M68.45,442.5s7.6,7.11,14.23,6.63c0,0,15.92,0,22.43-5.18l-.48,6.75s-16.64,5.66-17.12,3.13l-15.56-2.77s-3.74-1.33-3.5-8.55Z"/>
        <path class="cls-47" d="M61.27,457.78s.6-7.23,6.69-10.36c0,0,8.85-6.14,17.93-2.29,0,0,11.6,2.41,14.35,14.94l4.54-5.3s1.43,6.63-2.27,8.07c0,0-2.63,4.94-10.16,7.71,0,0-11.48,3.73-19.49,1.33,0,0-17.33-2.29-12.07-11.56,0,0,.76,4.61,5.65,2.94,0,0,.54,2.98,6.46,2.12,0,0,5.11,3.88,6.86-.63,0,0,.31,3.52,6.28,2.48,0,0,5.65-.05,8.2-3.79,0,0,.4-7.09-10.36-10.66,0,0-11.66-2.44-16.23.36,0,0-6.53,3.07-6.38,4.65Z"/>
        <path class="cls-48" d="M66.63,458.88s-1.01,3.33.24,5.44"/>
        <path class="cls-48" d="M72.66,459.97s-1.01,3.33.24,5.44"/>
        <path class="cls-48" d="M79.51,459.97s-1.01,3.33.24,5.44"/>
        <path class="cls-52" d="M69.61,410.83l-.9,8.33s35.86,3.1,39.22,0v-7.55s-19.28,3.29-38.33-.77Z"/>
      </g>
      <g>
        <path class="cls-29" d="M66.96,327.31h-1.2s-5.42,1.08-9.03,26.5c0,0-7.47,32.4-6.5,38.67,0,0,5.78,2.89,11.8,3.13v2.05s8.43,5.66,38.66,5.42c0,0-.6,1.57,6.02,1.45,0,0,28.78,2.17,33.36-1.81,0,0,32.76-.12,34.56-6.75,0,0,8.79.48,12.4-3.25,0,0-2.41-29.63-6.02-30.11l-8.67-35.29h-105.38Z"/>
        <path class="cls-51" d="M120.33,309.83v16.8s-8.67,14.64,4.7,19.51l19.69,5.24s5.78-4.16,11.02.9"/>
        <path class="cls-15" d="M52.54,382.56s3.84,2.72,11.9,4.21"/>
        <polyline class="cls-15" points="52.14 385.63 55.53 386.47 54.78 388.7 52.89 388.7 52.8 390.98 51.2 390.98"/>
        <line class="cls-15" x1="57.61" y1="386.48" x2="56.7" y2="394.56"/>
        <polyline class="cls-15" points="57.8 387.47 62.68 388.3 61.97 393.58 57.41 392.5"/>
        <path class="cls-15" d="M50.87,392.17s3.62,2.96,12.57,3.55"/>
        <path class="cls-61" d="M71.66,341.03s-3.68,13.38-4.31,21.74c0,0-3.06,24.24-3.5,28.07l-1.17,12.3"/>
        <path class="cls-61" d="M88.64,342.25s-2.05,5.22-1.75,7.92c0,0-.3,8.24-.32,9.53l.21,4.05"/>
        <path class="cls-55" d="M104.31,344.37s-1.5,3.11-1.39,4.68c0,0-.44,4.82-.49,5.58v2.36"/>
        <path class="cls-55" d="M103.13,391.63s-1.81,4.2-1.6,6.35c0,0-.39,6.58-.43,7.61l.11,3.23"/>
        <rect class="cls-35" x="59.08" y="389.91" width="1.22" height="1.22" transform="translate(-48.49 10.57) rotate(-7.2)"/>
        <rect class="cls-35" x="54.82" y="391.98" width=".47" height=".08" transform="translate(-48.72 10) rotate(-7.2)"/>
        <path class="cls-15" d="M65.04,388.77s9.62,5,36.56,5.87"/>
        <polyline class="cls-15" points="65.04 394.13 65.92 391.71 69.78 392.59 69.78 395.32 66.81 394.6 66.57 396.93 71.23 397.57 72.35 391.71"/>
        <path class="cls-15" d="M63.84,397.05s4.54,4.88,37.77,5.42"/>
        <polyline class="cls-15" points="73.3 399.3 74.58 392.95 81.82 394.48"/>
        <polyline class="cls-15" points="79.48 394.92 79.48 399.18 75.63 398.62 76.11 394.92 77.48 395.48"/>
        <line class="cls-15" x1="82.4" y1="392.67" x2="81.23" y2="400.87"/>
        <rect class="cls-15" x="84.61" y="395.2" width="4.66" height="4.74"/>
        <polyline class="cls-15" points="91.48 393.68 91.48 400.42 95.82 400.42 95.82 398.01 93.65 397.93 93.65 395.52 97.75 395.84 97.75 400.42"/>
        <line class="cls-15" x1="99.2" y1="396.13" x2="101.66" y2="396.13"/>
        <line class="cls-15" x1="99.2" y1="400.87" x2="101.69" y2="400.87"/>
        <line class="cls-15" x1="100.44" y1="398.5" x2="101.67" y2="398.5"/>
        <rect class="cls-35" x="86.39" y="397.02" width="1.1" height="1.1"/>
        <rect class="cls-15" x="170.2" y="392.9" width="3.21" height="4.74"/>
        <rect class="cls-35" x="171.42" y="394.72" width=".75" height="1.1"/>
        <path class="cls-15" d="M101.6,394.72s23.53,3.1,37.36-1.03"/>
        <path class="cls-15" d="M101.6,403.47s19.58,3.86,38.88-.55"/>
        <polyline class="cls-15" points="102.16 397.23 104.58 397.23 103.37 402.45"/>
        <polyline class="cls-15" points="105.33 402.63 106.84 402.63 106.84 397.41 113.49 397.41 113.49 403.03 118.11 403.03 118.11 397.81 114.91 397.97 115.09 402.63"/>
        <polyline class="cls-15" points="111.12 399.91 108.78 399.91 108.78 402.73 111.12 402.73 111.12 404.14"/>
        <line class="cls-15" x1="120.14" y1="395.82" x2="120.14" y2="405.02"/>
        <polyline class="cls-15" points="126.77 400.64 126.46 397.6 122.14 398.05 122.63 402.77 129.74 402.03 129.25 397.31"/>
        <line class="cls-15" x1="124.61" y1="402.38" x2="124.33" y2="399.72"/>
        <polyline class="cls-15" points="138.84 396.39 132.6 397.17 132.81 401.6 137.07 401.4 136.86 396.96"/>
        <line class="cls-14" x1="134.54" y1="399" x2="136.51" y2="399"/>
        <path class="cls-15" d="M139.09,394.14s18.6-.32,33.61-4.23l1.28,8.84c-10.39,3.86-34.4,4.12-34.4,4.12"/>
        <polyline class="cls-15" points="139.52 396.55 142.73 396.55 142.73 398.74 140.43 398.74 140.43 401.05 145.14 401.05 144.93 395.9"/>
        <polyline class="cls-15" points="147.29 402.23 147.07 395.9 151.09 395.9 151.36 400.19 147.55 400.35"/>
        <polyline class="cls-15" points="158.16 394.73 152.86 395.26 153.9 400.14 159.61 399.07"/>
        <line class="cls-15" x1="156.23" y1="399.07" x2="155.82" y2="394.96"/>
        <path class="cls-15" d="M159.61,392.32s1.07,7.82,1.55,7.82"/>
        <polyline class="cls-15" points="161.53 395.54 162.92 395.27 162.92 399.18 167.42 398.42 167.1 395.75 166.35 396.13"/>
        <polyline class="cls-15" points="166.01 396.33 164.72 396.33 164.72 393.71 168.79 393.12"/>
        <path class="cls-59" d="M139.29,376.52s-1.5,7.48-.76,11.55c0,0,.92,12.25,1.09,14.17l.85,6.08"/>
        <path class="cls-59" d="M170.61,377.7s2.56,5.36,2.63,8.45c0,0,1.32,9.15,1.5,10.59l.32,4.59"/>
        <path class="cls-15" d="M186.14,386.86c-6.59,2.31-12.44,2.48-12.44,2.48"/>
        <polyline class="cls-15" points="176.26 390.88 177.06 395.87 180.44 394.74"/>
        <polyline class="cls-15" points="178.35 390.88 181.16 390.32 182.21 394.74 186.14 393.37"/>
        <polyline class="cls-15" points="184.38 393.37 182.85 389.03 185.26 388.39"/>
        <line class="cls-15" x1="184.06" y1="391.2" x2="186.14" y2="390.88"/>
        <path class="cls-15" d="M174.18,389.75s.97,7.33,1.94,7.48c0,0,8.03-.23,10.85-2.6"/>
        <line class="cls-15" x1="174.78" y1="397.43" x2="175.95" y2="397.23"/>
      </g>
      <g>
        <path class="cls-23" d="M43.7,292.53l-2.89,11.56s-1.93.48-1.93,5.78l-5.78,22.65-3.61,4.82v18.55l7.11-6.75s-1.57,8.67,7.11,6.75l4.82,8.43s6.5-.24,9.63-16.62l11.8-42.88-26.25-12.29Z"/>
        <path class="cls-50" d="M58.38,258.11l1.45-2.41s10.84-4.1,14.69,3.37c0,0-2.53,28.79-3.49,38.55l-.96,17.47s-19.75-3.49-19.39-8.43l-.72,1.57s-13.13-6.26-12.65-7.47c0,0,15.29-33.49,21.08-42.64Z"/>
        <path class="cls-15" d="M42.76,289.12s16.26,11.08,25.91,11.98"/>
        <path class="cls-15" d="M39.36,296.87s17.31,11.75,27.59,12.72"/>
        <path class="cls-15" d="M41.93,291.35s2.13,1.51,2.15,1.52c.03.02,2.81,1.99,2.84,2.01-.69,1.04-1.38,2.08-2.07,3.12-1.51-.99-3.03-1.99-4.54-2.98"/>
        <polyline class="cls-15" points="49.19 297.71 50.1 295.72 53.85 297.71"/>
        <polyline class="cls-15" points="50.16 298.55 48.56 300.64 50.89 301.87"/>
        <polyline class="cls-15" points="58.9 302.25 57.83 302.25 57.83 304.18 55.09 303.21 56.75 299.41 60.66 300.8 59.27 305.68"/>
        <polygon class="cls-15" points="66.36 306.95 62.5 305.88 63.63 301.76 67.7 303.23 66.36 306.95"/>
        <path class="cls-1" d="M44.55,292.64c-.82,1.36-1.64,2.71-2.46,4.07"/>
        <path class="cls-8" d="M49.72,293.44c-1.46,2.31-2.93,4.63-4.39,6.94"/>
        <path class="cls-8" d="M56.04,297.14c-1.46,2.31-2.93,4.63-4.39,6.94"/>
        <path class="cls-8" d="M63.06,299.77c-1.03,2.54-2.06,5.07-3.1,7.61"/>
        <rect class="cls-58" x="64.38" y="303.6" width="1.45" height="1.51" transform="translate(68.07 -6.87) rotate(12.62)"/>
        <rect class="cls-58" x="51.62" y="298.47" width="1.01" height="1.06" transform="translate(197.7 32.68) rotate(38.55)"/>
        <rect class="cls-58" x="44.15" y="295.08" width=".81" height=".85" transform="translate(193.87 36.64) rotate(38.55)"/>
        <rect class="cls-58" x="41.55" y="293.49" width=".81" height=".85" transform="translate(192.31 37.91) rotate(38.55)"/>
        <path class="cls-12" d="M30.56,324.3s13.54,30.54,16.45,31.82l15.16,23.3s-5,11.41-17.25,8.2c0,0-5-12.54-11.13-22.34,0,0-20.14-29.89-21.36-29.57l18.13-11.41Z"/>
        <g>
          <path class="cls-9" d="M13.25,337.83s-4.02-6.43,5.62-12.05c0,0,9.8-4.34,11.73-.48,0,0,1.88,5.14-3.86,9.11,0,0-8.07,6.07-13.5,3.43Z"/>
          <path class="cls-32" d="M16.4,335.16s-3.18-2.89,3.73-7.34c0,0,4.45-2.95,6.86-.43,0,0,.86,4.12-3.48,5.89,0,0-1.46,2.04-7.1,1.88Z"/>
          <line class="cls-16" x1="16.4" y1="335.16" x2="18.87" y2="338.13"/>
          <line class="cls-16" x1="27.05" y1="327.52" x2="29.9" y2="331.09"/>
          <path class="cls-24" d="M18.88,332.78s-.75-1.04,2.44-3.38c0,0,1.66-1.23,2.52-.43,0,0,.7,1.63-2.2,2.65,0,0-1.69,1.47-2.76,1.15Z"/>
          <path class="cls-24" d="M18.88,332.78l1.55,1.65.15.17"/>
          <line class="cls-24" x1="26.1" y1="331.31" x2="23.84" y2="328.98"/>
          <path class="cls-11" d="M24.08,329.4s1.89-.66,1.77-1.89"/>
        </g>
        <path class="cls-23" d="M45.72,350.2s-7.02,6.86-.86,11.95c0,0,5.73,1.5,6.64-5.2"/>
        <g>
          <path class="cls-10" d="M28.02,355.68s6.85.8,9.57-2.25l5.22-4.34-.43,2.87s-3.7,3.57-6.36,4.07c0,0-2.88,1.6-7.66,1.2l-.33-1.55Z"/>
          <path class="cls-10" d="M30.45,359.53l-.3-2.44s5.57,1.75,8.47-2.28l4.38-5.71.77,3.2s-2.31,4.04-5.45,5.64c0,0-5.15,2.89-7.88,1.6Z"/>
          <path class="cls-10" d="M25.33,351.87s-1.85-4.82-4.14,0c0,0,.48,3.78,4.98,5.26v.72l-4.14,2.53s-3.13,1.97-.84,3.62c0,0,2.17,1.21,3.42-2.05l3.17-3.78-2.09,4.14s-2.73,5.99.84,7.63c0,0,2.65.52.48-2.21-2.17-2.73-.12-.24-.12-.24,0,0-.94-4.18.97-5.5,0,0,.59-1.12.79-3.25l1.49-.08v-1.37l-1.49-.4-4.94,4.5s-1.37,1.41-1.69.8,4.53-4.37,4.53-4.37l-.03-1.21-2.76-4.04-.87-1.1s-.04-1.73,2.42.39Z"/>
        </g>
      </g>
      <g>
        <path class="cls-44" d="M201.9,281.64l2.71,9.51s4.29,2.61,2.84,5.86c0,0,3.92,4.1,2.93,6.58l5.8,17.53s13.77,12.44,6.73,22.52c0,0,1.49,5.11-12.91,9.64,0,0-11.2,3.81-13.62-7.92l-16.18-40.18-5.53-15.19,27.23-8.35Z"/>
        <path id="mano" class="cls-17" d="M166.7,249.17l.68-.24,14.25-5.06s11.56,15.54,15.9,28.07l7.71,18.31s-5.66,6.63-13.13,7.83l.12-1.57-1.45,2.65s-11.44,5.3-16.62,5.06c0,0-1.69-8.07-2.17-17.71l-4.34-36.74-.96-.6Z"/>
        <path class="cls-15" d="M199.74,277.57s-16.26,11.08-25.91,11.98"/>
        <path class="cls-15" d="M203.14,285.32s-17.31,11.75-27.59,12.72"/>
        <path class="cls-15" d="M200.57,279.8s-2.13,1.51-2.15,1.52c-.03.02-2.81,1.99-2.84,2.01l2.07,3.12c1.51-.99,3.03-1.99,4.54-2.98"/>
        <polyline class="cls-15" points="193.32 286.15 192.41 284.17 188.66 286.15"/>
        <polyline class="cls-15" points="192.34 286.99 193.94 289.08 191.61 290.32"/>
        <polyline class="cls-15" points="183.61 290.7 184.68 290.7 184.68 292.62 187.41 291.66 185.75 287.86 181.84 289.25 183.23 294.12"/>
        <polygon class="cls-15" points="176.14 295.4 180 294.33 178.87 290.2 174.8 291.68 176.14 295.4"/>
        <path class="cls-1" d="M197.95,281.09c.82,1.36,1.64,2.71,2.46,4.07"/>
        <path class="cls-8" d="M192.78,281.89c1.46,2.31,2.93,4.63,4.39,6.94"/>
        <path class="cls-8" d="M186.46,285.59c1.46,2.31,2.93,4.63,4.39,6.94"/>
        <path class="cls-8" d="M179.44,288.22c1.03,2.54,2.06,5.07,3.1,7.61"/>
        <rect class="cls-58" x="176.68" y="292.04" width="1.45" height="1.51" transform="translate(414.48 539.77) rotate(167.38)"/>
        <rect class="cls-58" x="189.87" y="286.92" width="1.01" height="1.06" transform="translate(518.4 393.61) rotate(141.45)"/>
        <rect class="cls-58" x="197.54" y="283.53" width=".81" height=".85" transform="translate(529.72 382.65) rotate(141.45)"/>
        <rect class="cls-58" x="200.14" y="281.93" width=".81" height=".85" transform="translate(533.35 378.19) rotate(141.45)"/>
      </g>
      <path id="tronco" class="cls-36" d="M70.34,249.92s-4.15,18.97-3.79,32.7l-.84,17.65s-9.33,13.37,4.64,18.25c0,0,14.51,6.87,20.65,5.42,0,0,5.24-3.61,10.84,1.08l42.63,1.81,6.68-5.6s3.43,1.26,6.14-.72c0,0,11.38-.72,17.88-7.59,0,0,2.89-2.17-.9-12.65l-5.42-52.76-38.84,8.49-10.57,20.42-16.34-24.03-32.76-2.47Z"/>
      <g>
        <path class="cls-25" d="M98.88,320.3l40.83-.9v14.64s-18.25,2.35-17.88,1.08c0,0-43.76,2.71-58.37-10.12v-12.91s13.03,6.05,35.43,8.21Z"/>
        <circle class="cls-37" cx="74.9" cy="323.36" r="1.07"/>
        <circle class="cls-37" cx="87.54" cy="326.36" r="1.07"/>
        <circle class="cls-37" cx="93.38" cy="327" r="1.07"/>
        <circle class="cls-37" cx="99.22" cy="327.43" r="1.07"/>
        <path class="cls-6" d="M109.18,326.76s-.52-6.39,2.41-6.71h15.43v5.79l-.36,7.51s-.08,4.22-5.42,3.54l-8.68-.16s-3.69-.28-3.41-4.26v-2.81s2.77.05,2.77.05c0,0-.83,4.53,1.85,4.5s1.93.03,1.93.03h6.62s1.47-.11,1.63-2.79l.03-2.09h1.15s-.01-.05-.01-.05l-1.15.02-2.72.06s-1.29-1.29.53-2.04l3.16.16v-.11s-.95-.07-.95-.07l.17-3.25s-.44-2.05-3.17-1.73l-7.23.04s-2.17.32-1.89,2.57l-.04,2.21,2.68.11s1.69,1.57-.56,2.42l-2.08-.05-2.97-.04s-2.13-1.43.24-2.63l.06-.22Z"/>
      </g>
      <g>
        <path class="cls-27" d="M84.38,237.79s14.15-2.59,27.2,1.35c0,0,10.88.69,15.78-2.19h6.74s25.23-2.88,31.38-6.48c0,0,8,.79,9.35,6.87,0,0,12.31.23,11.81,14.3,0,0-.37-5.85-11.57-.56,0,0-5.17,1.8-11.81,7.65,0,0,1.85,35.23,4.43,38.39,0,0,2.46,10.36.37,12.72,0,0-4.06-1.8-6.77,0,0,0-2.71,1.46-3.94,1.35,0,0-3.08-2.14-2.71-3.83,0,0-11.32-1.01-7.88-5.74,0,0-10.83-.56-9.97-7.43l-.12-23.35s-15.26,4.56-33.6-2.99c0,0-18.58-9.23-17.47-13.51l-1.23-16.55Z"/>
        <path class="cls-5" d="M90.26,241.83s19.65,7.67,33.3,6.46c0,0,16.83-7.67,19.65-12.71"/>
        <path class="cls-21" d="M143.21,246.21s13.15-8.86,12.81-12.76"/>
        <path class="cls-18" d="M91.91,246.87s19.3,13.69,33.18,11.61c0,0,18.59.22,34.94-14.24"/>
        <path class="cls-45" d="M131.8,263.74s14.59-.44,27.41-17.53c0,0,6.35-7.5,7.88-6.38,0,0,3.56-3.78,7.31-3.8"/>
        <path class="cls-21" d="M158.86,252.35s14-9.86,17.3-9.31"/>
        <path class="cls-41" d="M136.59,271.42s17.83-13.46,26.68-12.66"/>
      </g>
      <g id="Bolso">
        <path class="cls-19" d="M146.98,333.46s2.05,15.9,3.13,17.23c0,0,2.65,15.9,3.97,16.98,0,0,.36,6.5,10.6,4.46,0,0,21.56-6.75,23.12-16.62,0,0-1.08-10.84-3.01-10.36,0,0,.84-5.78-2.29-8.07l-4.58-14.7-30.95,11.08Z"/>
        <path class="cls-30" d="M137.32,321.49s5.57-5.24,12.86-1.26c0,0,4.61-.45,6.14-1.49,0,0,5.76,1.13,11.13-2.67,0,0,8.06-6.87,11.52,3.98l7.1,17.71s5.57,6.69-7.87,13.55c0,0-15.55,6.69-21.69,3.61,0,0-4.03,3.07-8.64-15.9,0,0-4.41-20.24-10.56-17.53Z"/>
        <path class="cls-30" d="M143.08,319.02s-13.49-4.3-6.74,13.47l8.19,32.6s.96,7.02,7.47,6c0,0-3.48-1.73-3.48-2.41l3.7,2.33s6.77,1.53,8.08,1.02c0,0-5.33-2.42-7.41-18.04l-6.41-28.36-3.4-6.62Z"/>
        <path class="cls-7" d="M167.02,343.27s-.24-5.87,5.46-3.29c0,0,2.97,4.98,2.73,8.76l2.17,9.08s2.17,6.43-.8,6.99l-2.97.56s-3.21-1.04-2.17-6.75l-4.42-15.35Z"/>
        <path class="cls-3" d="M171.72,359.57s-1.57-4.06.2-4.58l4.14-1.61s1.69-.16,1.61,2.85v.8s1.49-.12,1.49-.12c0,0,.72-6.27-3.86-4.86l-4.58,1.41s-2.49,2.09-.48,6.11c0,0,.48,2.89,3.9,1.85,0,0,5.27-.92,5.06-3.94v-.47s-1.56.11-1.56.11c0,0,.38,1.74-1.63,1.6l-2.65.78s-1.75.57-1.64.07Z"/>
        <path class="cls-25" d="M71.13,255.7s54.91,80.7,68.54,78.53c0,0,.69-.33-.25-1.21-.34-.33-.91-.73-1.81-1.21-3.35-1.81,1.83.76,1.83.76l3.32-3.12-.56-1.1,2.4,2.63s3.92-.34-.91-5.2c0,0-28.4-26.53-29.19-31.29,0,0-22.8-30.92-30.12-39.49-7.33-8.57-12.09.64-12.09.64l-1.17.06Z"/>
      </g>
      <g>
        <path class="cls-38" d="M88.78,244.11l9.18-.48s-12.82-1.69-12.59-2.9-13.41-3.87-13.41-3.87c0,0-1.65,1.21-.47,2.54,0,0-5.41-3.51-8.47,6.17,0,0-.55.23-1.37.7-2.7,1.59-8.27,5.94-5.92,13.93l2.59-3.02s6-2.54,11.29.73c0,0,.24-21.17,18.82-13.06"/>
        <path class="cls-22" d="M63.18,245.71s5.52.06,8.7,3.34"/>
        <path class="cls-22" d="M72.17,239.84s4.23,2.52,4.82,4.07"/>
        <line class="cls-22" x1="85.21" y1="240.6" x2="84.95" y2="243.16"/>
        <circle class="cls-28" cx="78.74" cy="251.41" r="11.21"/>
        <circle class="cls-28" cx="78.74" cy="251.97" r="8.73"/>
        <path class="cls-26" d="M77.43,246.32l1.26-3.7,1.79,5.04s.75,1.77,1.77,1.93l4.66,1.02v1.07l-4.74,1.34s-.72,2.14-2.01,1.88l-.59,5.3h-1.45l-1.23-5.46s-1.61-.75-1.61-1.55l-4.71-1.39v-1.07s4.34-.59,5.2-1.45c0,0,1.55-.96,1.66-2.68"/>
        <circle class="cls-54" cx="78.74" cy="251.97" r="2.23"/>
      </g>
      <path class="cls-13" d="M20.99,122.07s.66,29.23,8.74,38.11c0,0-17.14,6.62-12.53,30.68,0,0,5.44,19.86,22.09,18.89,0,0,5.6,15.18,32.64,28.26,0,0,30.17,12.11,60.99,6.78,0,0,22.25.32,44.01-13.56,0,0,14.84-8.72,20.93-21.8,0,0,24.4,6.04,27.36-25.32,0,0,.99-18.12-15.5-25.55,0,0,5.27-5.97,6.76-25.03,0,0,1.98-11.3-1.32-17.12l-40.94-40.84-63.3-1.86-52.75,8.14-31.65,15.99-5.55,24.22Z"/>
      <path class="cls-31" d="M47.33,113.16s42.86-10.01,54.4-8.4c0,0,16.15-1.61,14.18,17.12,0,0,2.97,32.62.17,34.23,0,0,1.15,23.25-32.15,22.61,0,0-36.6,3.23-42.2-20.02,0,0-7.91-29.39,5.6-45.54Z"/>
      <path class="cls-39" d="M195.93,114.15s-42.86-10.01-54.4-8.4c0,0-16.15-1.61-14.18,17.12,0,0-2.97,32.62-.17,34.23,0,0-1.15,23.25,32.15,22.61,0,0,36.6,3.23,42.2-20.02,0,0,7.91-29.39-5.6-45.54Z"/>
      <polygon class="cls-43" points="21.88 138.46 38.78 136.96 39.35 151.66 23.79 146.88 21.88 138.46"/>
      <polygon class="cls-43" points="215.43 137.19 203.77 135.38 203.65 150.05 214.27 145.56 215.43 137.19"/>
      <path class="cls-40" d="M117.08,177.89l.49,1.72s.56,1.02.84.04v-.24l1.93-.02s1.63,1.55,2.04,1.31l1.59.03,1.55-1.56,1.26.14s-.14,1.21.56.97c0,0,.8-.71.76-1.45v-1.11s-1.21-.8-1.71-.7c-.04,0-.07.02-.1.04-.41.26-4.29.04-4.29.04l-4.74.32-.27.18.1.29Z"/>
      <path class="cls-20" d="M59.65,229.39s-18.79-12.5-10.88-36.24c0,0,7.42-19.54,26.87-14.53l13.85,3.39,15.5,2.58,19.12,1.45,17.64-.97,21.76-3.71,11.04-1.94s20.11-2.75,20.28,19.7v5.33l-1.15,6.3-1.98,6.14-5.93,8.56-4.62,4.84-2.97,1.94-11.21,5.81-10.06,3.07-13.68,3.55-10.88.81-12.53.81-13.19-1.13-19.12-3.23-10.55-2.75-10.22-4.2-7.09-5.58Z"/>
      <path class="cls-46" d="M117.34,147.88v-2.99s6.43-1.7,8.57.73v2.58s-3.79-2.83-8.57-.32Z"/>
      <path class="cls-33" d="M31.32,177.15s.99-6.78-4.4-2.58c0,0-3.96,11.84,1.43,20.78,0,0-2.2-5.38,3.96-4.52,0,0,1.65,2.26,3.41.86,0,0-.66-2.26-2.31-2.37,0,0,1.98-1.83,1.21-7"/>
      <path class="cls-33" d="M207.87,174.99s-.99-6.78,4.4-2.58c0,0,3.96,11.84-1.43,20.78,0,0,2.2-5.38-3.96-4.52,0,0-1.65,2.26-3.41.86,0,0,.66-2.26,2.31-2.37,0,0-1.98-1.83-1.21-7"/>
      <path class="cls-49" d="M47.5,84.65s-12.01-4.78-16.29-14.07"/>
      <path class="cls-49" d="M72.66,67.67s-11.52-12.38-11.03-34.34"/>
      <path class="cls-49" d="M126.55,59.44s9.24-14.18-.63-36.88"/>
      <path class="cls-49" d="M177.67,70.58s14.31-11.88,12.74-36.92"/>
      <path class="cls-49" d="M193.17,83.55s5.81-23.78,29.56-19.04"/>
      <path class="cls-49" d="M51.73,97.79s.16,20.97-26.05,23.11c0,0-19.45.83-25.06-23.11,0,0-1.15-13.04,10.88-22.95,0,0,8.41-6.77,19.62-3.96,0,0-8.08-16.34,2.97-28.39,0,0,10.55-13.87,27.53-8.42,0,0,.82-21.13,20.44-31.04,0,0,13.02-7.26,29.67,3.3,0,0,9.89,6.6,15.17,18.82,0,0,10.71-24.43,28.35-23.61,0,0,13.85-3.96,26.54,11.23,0,0,7.42,6.93,8.74,21.63,0,0,13.35-5.94,25.06,4.46,0,0,12.03,9.24,7.25,25.92,0,0,26.7,5.94,18.13,35.33,0,0-2.47,10.9-17.64,15.52,0,0-15.99,4.62-25.88-8.75,0,0-5.77-7.26-5.11-14.36l-41.59-13.39h-22.77l-41.19,4.91-32.68,4.88-2.38,8.88Z"/>
      <path class="cls-56" d="M61.63,97.11l18.02,5.38,8.35,1.08s9.23,2.58,7.47-9.69l19.34,3.23s16.92,4.95,9.23-6.24l7.69,2.8s12.97,4.95,5.27-11.52l9.23,5.49s7.47,4.52,9.23-2.15c0,0,9.89,5.81,13.41,1.72,0,0,5.06,9.69,11.87,9.9,0,0,11.65,5.6,9.01-3.23,0,0,11.65,19.38,12.75-1.94l-26.37-9.8-49.23-7.86-39.34-4.95-30-8.72-6.26,18.25-1.98,16.63,12.31,1.61Z"/>
      <g>
        <path class="cls-4" d="M59.43,138.99s-3.08,16.79,3.08,20.02c0,0,2.2,3.66,17.8,3.01,0,0,7.47,1.72,16.48-.86,0,0,8.57-2.37,9.01-9.69l-.44-14.43s-30.33-.65-45.06,2.15l-.88-.22Z"/>
        <path class="cls-42" d="M67.35,138.16s-2.97,20.2,17.48,20.74c0,0,21.1,0,16.12-22.08"/>
        <ellipse class="cls-60" cx="95.92" cy="141.47" rx="1.7" ry="1.67"/>
      </g>
      <path class="cls-2" d="M103.83,197.13s4.29,1.18,6.04,4.52c0,0,9.45-3.98,21.32,8.07,0,0,3.52,3.44,4.07,10.12"/>
      <path class="cls-57" d="M104.6,122.77s-.74,9.23,1.59,10.87c0,0-38.69-4.88-50.66,8.49,0,0,4.88-20.22,15.76-18.13,0,0,2.62-3.52,33.31-1.23Z"/>
      <g>
        <path class="cls-4" d="M183.61,138.35s3.08,16.79-3.08,20.02c0,0-2.2,3.66-17.8,3.01,0,0-7.47,1.72-16.48-.86,0,0-8.57-2.37-9.01-9.69l.44-14.43s30.33-.65,45.06,2.15l.88-.22Z"/>
        <path class="cls-42" d="M175.7,137.52s2.97,20.2-17.48,20.74c0,0-21.1,0-16.12-22.08"/>
        <ellipse class="cls-60" cx="147.13" cy="140.82" rx="1.7" ry="1.67"/>
      </g>
      <path class="cls-57" d="M139.1,122.13s.74,9.23-1.59,10.87c0,0,38.69-4.88,50.66,8.49,0,0-4.88-20.22-15.76-18.13,0,0-2.62-3.52-33.31-1.23Z"/>
      <path class="cls-53" d="M235.48,59.04c-.84.1-1.68.22-2.52.31-.81.09-1.56-.45-1.68-1.25-.31-2.17-.51-4.35-.34-6.55.22-2.78,1.49-4.98,3.54-6.81,1-.89,2.01-1.79,2.93-2.77.93-.98,1.56-2.15,1.7-3.54.32-3.14-2.08-5.65-5.23-5.46-2.31.14-4.08,1.13-5.04,3.31-.2.45-.28.96-.36,1.45-.14.85-.6,1.34-1.44,1.45-1.84.23-3.69.46-5.53.68-1.07.13-1.83-.59-1.8-1.68.1-5.12,2.59-8.72,7.16-10.82,4.47-2.05,9.15-2.42,13.86-.91,3.48,1.11,6,3.37,7.11,6.94,1.48,4.75.47,8.91-3.2,12.34-.92.87-1.93,1.65-2.87,2.49-2.05,1.82-2.88,4.11-2.64,6.82.06.63.14,1.25.21,1.87.11,1.01-.44,1.72-1.45,1.85-.8.1-1.6.2-2.4.3Z"/>
      <path class="cls-53" d="M237.33,72.62c-2.86.35-5.37-1.62-5.72-4.49-.35-2.82,1.65-5.34,4.5-5.68,2.77-.33,5.39,1.7,5.72,4.45.33,2.76-1.73,5.38-4.5,5.72Z"/>
    </g>
  </g>
</svg>